<?xml version="1.0" encoding="utf-8"?><svg viewBox="0 0 145 145" xmlns="http://www.w3.org/2000/svg" xmlns:xlink="http://www.w3.org/1999/xlink"><style>:root>svg{display:none}:root>svg:target{display:block}</style><svg fill="none" viewBox="0 0 145 145" id="Group" xmlns="http://www.w3.org/2000/svg"><g filter="url(#afilter0_d)"><circle cx="72.5" cy="67.5" r="42.5" fill="#E3B873"/></g><path d="M86 68L65 80.124V55.876L86 68z" fill="#fff"/><defs><filter id="afilter0_d" x="0" y="0" width="145" height="145" filterUnits="userSpaceOnUse" color-interpolation-filters="sRGB"><feFlood flood-opacity="0" result="BackgroundImageFix"/><feColorMatrix in="SourceAlpha" values="0 0 0 0 0 0 0 0 0 0 0 0 0 0 0 0 0 0 127 0"/><feOffset dy="5"/><feGaussianBlur stdDeviation="15"/><feColorMatrix values="0 0 0 0 0.890196 0 0 0 0 0.721569 0 0 0 0 0.45098 0 0 0 0.2 0"/><feBlend in2="BackgroundImageFix" result="effect1_dropShadow"/><feBlend in="SourceGraphic" in2="effect1_dropShadow" result="shape"/></filter></defs></svg><svg fill="none" viewBox="0 0 33 33" id="area" xmlns="http://www.w3.org/2000/svg"><path fill-rule="evenodd" clip-rule="evenodd" d="M3.25 1.382A.39.39 0 013.648 1h28.664a.39.39 0 01.398.382v27.622a.39.39 0 01-.398.382.39.39 0 01-.399-.382V1.764H3.648a.39.39 0 01-.398-.382z" fill="#fff" stroke="#fff" stroke-width=".5" stroke-linecap="round" stroke-linejoin="round"/><path d="M3.668 29.562h.125V5.68L5.42 7.304a.52.52 0 10.735-.735L3.641 4.056a.52.52 0 00-.736 0L.392 6.569a.52.52 0 10.735.735L2.753 5.68v23.883h.915z" fill="#fff" stroke="#fff" stroke-width=".25"/><path d="M2.752 29.831v.125H26.76l-1.634 1.626a.518.518 0 000 .736.524.524 0 00.738 0l2.527-2.514a.519.519 0 000-.735l-2.527-2.514a.523.523 0 00-.738 0 .518.518 0 000 .736l1.634 1.625H2.752v.915z" fill="#fff" stroke="#fff" stroke-width=".25"/><path fill-rule="evenodd" clip-rule="evenodd" d="M14.162 1.116a.395.395 0 010 .558l-4.74 4.74a.395.395 0 11-.558-.559l4.74-4.74a.395.395 0 01.558 0zM32.462 19.942a.395.395 0 010 .559l-4.344 4.344a.395.395 0 11-.559-.558l4.345-4.345a.395.395 0 01.558 0zM20.085 1.114a.395.395 0 01.004.558L9.819 12.073a.395.395 0 01-.561-.555l10.268-10.4a.395.395 0 01.56-.004zM32.594 13.36a.395.395 0 010 .558L22.588 23.923a.395.395 0 01-.558-.558l10.005-10.006a.395.395 0 01.559 0zM26.408 1.25a.395.395 0 01-.004.558L9.947 18.001a.395.395 0 11-.554-.563L25.85 1.245a.395.395 0 01.558.005zM32.594 7.172a.395.395 0 010 .558L16.006 24.318a.395.395 0 11-.559-.558L32.035 7.172a.395.395 0 01.559 0zM32.33 1.247a.395.395 0 010 .559L9.687 24.45a.395.395 0 11-.558-.558L31.772 1.247a.395.395 0 01.559 0z" fill="#fff" stroke="#fff" stroke-width=".5" stroke-linecap="round" stroke-linejoin="round"/></svg><svg fill="none" viewBox="0 0 42 14" id="arrowNext" xmlns="http://www.w3.org/2000/svg"><path fill-rule="evenodd" clip-rule="evenodd" d="M35.045 0l6.638 6.638-6.638 6.638-.948-.947 5.691-5.691-5.69-5.69.947-.948z" fill="#fff"/><path fill-rule="evenodd" clip-rule="evenodd" d="M40.736 7.308H.228v-1.34h40.508v1.34z" fill="#fff"/></svg><svg fill="none" viewBox="0 0 42 14" id="arrowPrev" xmlns="http://www.w3.org/2000/svg"><path fill-rule="evenodd" clip-rule="evenodd" d="M6.638 13.276L0 6.638 6.638 0l.948.948-5.69 5.69 5.69 5.69-.948.948z" fill="#fff"/><path fill-rule="evenodd" clip-rule="evenodd" d="M.948 5.968h40.508v1.34H.948v-1.34z" fill="#fff"/></svg><svg fill="none" viewBox="0 0 34 29" id="camera" xmlns="http://www.w3.org/2000/svg"><path d="M32.851 9.766L8.731.829a.595.595 0 00-.765.353h-.001l-2.67 7.269a.596.596 0 00.353.764l2.797 1.027-.616 1.678a.596.596 0 00.354.765l5.592 2.053-.41 1.119a2.354 2.354 0 00.848 2.746v3.04H6.197a2.987 2.987 0 00-2.13-1.727v-1.251a.596.596 0 00-.596-.596H1.07a.596.596 0 00-.595.596v9.532c0 .329.266.595.595.595h2.402c.33 0 .596-.266.596-.596v-1.25a2.987 2.987 0 002.13-1.728h8.016v.596a1.787 1.787 0 103.575 0v-6.6c.541-.268.96-.734 1.168-1.302l.411-1.119L24.4 18.64a.593.593 0 00.765-.354l.223-.608a3.571 3.571 0 003.92-4.97l3.611-1.855a.596.596 0 00-.065-1.09l-.003.003zm-17.446 9.38l.493.179c.224.08.46.127.698.137v2.181h-1.191v-2.497zm-12.53 8.455h-1.21v-8.34h1.21v8.34zm2.384-3.575a1.791 1.791 0 01-1.192 1.686V21.15a1.79 1.79 0 011.192 1.685v1.191zm1.21-1.191h10.127v1.191H6.47v-1.191zM16 26.409a.596.596 0 01-.595-.595v-.596h1.191v.596a.596.596 0 01-.596.595zm2.249-10.026l-.411 1.119a1.192 1.192 0 01-1.529.707l-1.12-.41a1.192 1.192 0 01-.708-1.53l.41-1.118 3.02 1.109.338.123zm6.003.935l-15.1-5.544.412-1.12 8.947 3.287a.6.6 0 00.614-.126l1.672-1.574 4.687 1.722-1.232 3.355zm4.028-2.328a2.392 2.392 0 01-2.473 1.55l.92-2.508 1.504-.775c.235.55.253 1.17.05 1.733zm-2.01-2.06a.534.534 0 00-.094.017l-5.312-1.95a.596.596 0 00-.614.124l-1.673 1.574-11.958-4.39 2.258-6.15 22.29 8.258-4.898 2.517z" fill="#E3B873"/><path d="M12.13 8.703l-.526 1.42m2.815-.58l-.526 1.42m2.748-.593l-.525 1.42" stroke="#E3B873" stroke-linecap="round"/></svg><svg fill="none" viewBox="0 0 34 22" id="clients" xmlns="http://www.w3.org/2000/svg"><path d="M22.426 5.56l-4.845-1.454a3.426 3.426 0 00-1.108-.133v-.012h-5.89L.14.49.17 15.164l2.998 1.499 1.775-4.34 2.593 1.038.673-1.68.973.973-.908.909a1.695 1.695 0 001.14 2.89 1.693 1.693 0 001.63 1.63 1.693 1.693 0 001.63 1.63 1.695 1.695 0 001.69 1.636c.446 0 .883-.181 1.199-.497l.909-.909.365.365c.316.316.752.497 1.199.497.915 0 1.658-.729 1.69-1.636a1.693 1.693 0 001.63-1.63 1.693 1.693 0 001.63-1.63 1.695 1.695 0 001.637-1.69c0-.077-.013-.154-.023-.23l.78-.78.63 1.26 3.413-1.706 2.063 3.938 2.374-1.583V1.075L22.426 5.56zm-19.82 9.607l-1.349-.675L1.23 1.998l5.954 1.979-4.578 11.19zm4.326-3.218l-1.577-.63L8.218 4.32l1.558.518-2.844 7.11zm1.933 2.814c0-.16.065-.317.178-.431l.956-.955a.61.61 0 01.862.862l-.956.955a.61.61 0 01-1.04-.43zm1.63 1.63c0-.16.065-.317.178-.43l.956-.956a.61.61 0 01.862.862l-.956.955a.61.61 0 01-1.04-.43zm1.63 1.63c0-.16.065-.317.178-.43l.956-.956a.61.61 0 01.862.862l-.956.956a.61.61 0 01-1.04-.43zm3.626 1.106l-.955.956a.61.61 0 01-.862-.862l.955-.956a.61.61 0 01.862.862zm7.177-4.3a.613.613 0 01-.431-.178l-4.553-4.554-.769.769 4.553 4.553a.61.61 0 01-.862.862l-4.553-4.553-.768.768 4.553 4.553a.61.61 0 01-.862.862l-4.553-4.553-.768.768 4.553 4.553a.61.61 0 01-.862.862l-.613-.613c.011-.076.023-.152.023-.23 0-.914-.73-1.657-1.636-1.69a1.692 1.692 0 00-1.63-1.63 1.692 1.692 0 00-1.63-1.63 1.695 1.695 0 00-1.69-1.636c-.078 0-.154.012-.23.022l-1.552-1.55 2.215-5.536h3.211l-1.995 1.995a1.698 1.698 0 002.398 2.398l1.44-1.44a.836.836 0 011.12-.023l1.27 1.164a6.14 6.14 0 001.393.96l3.659 3.687a.61.61 0 01-.43 1.04zm1.152-1.856l-2.233-2.25c.2.019.4.03.603.03V9.666a5.032 5.032 0 01-3.408-1.325l-1.27-1.164c-.718-.659-1.935-.633-2.623.057l-1.44 1.44a.61.61 0 01-.863-.862l2.072-2.072a2.38 2.38 0 012.35-.592l4.8 1.44 2.8 5.598-.788.787zm2.417.04l-3.295-6.59 2.406-.944 3.312 6.322-2.423 1.212zm6.278 1.525l-.886.59L26.626 5.08l6.149-2.411v11.87z" fill="#E3B873"/></svg><svg fill="none" viewBox="0 0 34 32" id="date" xmlns="http://www.w3.org/2000/svg"><path d="M24.6 2.2C24.337.946 23.196 0 21.831 0a.558.558 0 00-.565.55c0 .304.253.55.565.55.935 0 1.696.74 1.696 1.65 0 .91-.76 1.65-1.696 1.65a.558.558 0 00-.565.55c0 .303.253.55.565.55 1.365 0 2.506-.947 2.77-2.2h7.404v4.949H1.485v-4.95h9.608a.558.558 0 00.565-.55.558.558 0 00-.565-.55h-1.027a1.69 1.69 0 011.592-1.1c.935 0 1.695.741 1.695 1.65 0 .91-.76 1.65-1.695 1.65a.558.558 0 00-.565.55c0 .304.253.55.565.55 1.558 0 2.826-1.233 2.826-2.75C14.484 1.234 13.216 0 11.658 0c-1.364 0-2.506.946-2.769 2.2H.354v29.145h32.781V2.2H24.6zm7.405 28.045H1.485V9.35h30.52v20.896z" fill="#fff"/><path d="M15.049 1.1c.935 0 1.696.74 1.696 1.65 0 .91-.761 1.65-1.696 1.65a.558.558 0 00-.565.55c0 .303.253.55.565.55 1.558 0 2.826-1.234 2.826-2.75 0-1.517-1.268-2.75-2.826-2.75a.558.558 0 00-.565.55c0 .304.253.55.565.55zM18.44 1.1c.935 0 1.696.74 1.696 1.65 0 .91-.761 1.65-1.696 1.65a.558.558 0 00-.565.55c0 .303.253.55.565.55 1.558 0 2.826-1.234 2.826-2.75 0-1.517-1.268-2.75-2.826-2.75a.558.558 0 00-.565.55c0 .304.253.55.565.55zM5.44 13.748h12.435a.558.558 0 00.565-.55.558.558 0 00-.565-.55H5.441a.558.558 0 00-.565.55c0 .304.253.55.565.55zM28.049 21.447H19.57a.558.558 0 00-.566.55c0 .304.254.55.566.55h8.477a.558.558 0 00.566-.55.558.558 0 00-.566-.55zM5.44 18.147h5.653a.558.558 0 00.565-.55.558.558 0 00-.565-.55H5.44a.558.558 0 00-.565.55c0 .304.253.55.565.55zM28.049 25.846h-5.652a.558.558 0 00-.566.55c0 .304.254.55.566.55h5.652a.558.558 0 00.565-.55.558.558 0 00-.566-.55zM16.18 17.597c0 .304.253.55.565.55h8.477a.558.558 0 00.566-.55.558.558 0 00-.566-.55h-8.477a.558.558 0 00-.566.55zM14.32 17.988a.57.57 0 00.164-.39.568.568 0 00-.164-.39.604.604 0 00-.803 0 .568.568 0 00-.163.39.57.57 0 00.163.39.58.58 0 00.803 0zM7.702 21.997c0 .304.253.55.565.55h8.478a.558.558 0 00.565-.55.558.558 0 00-.565-.55H8.267a.558.558 0 00-.565.55zM5.44 22.547c.148 0 .295-.06.402-.16a.57.57 0 00.164-.39.545.545 0 00-.164-.385.598.598 0 00-.802-.005.568.568 0 00-.164.39.57.57 0 00.164.39c.107.1.248.16.4.16zM28.049 18.148a.58.58 0 00.4-.16.546.546 0 000-.78.604.604 0 00-.802 0 .568.568 0 00-.164.39.57.57 0 00.164.39.58.58 0 00.402.16zM19.57 25.846H5.44a.558.558 0 00-.564.55c0 .304.253.55.565.55h14.13a.558.558 0 00.565-.55.558.558 0 00-.565-.55z" fill="#fff"/></svg><svg fill="none" viewBox="0 0 88 88" id="dignity-list1" xmlns="http://www.w3.org/2000/svg"><g filter="url(#hfilter0_d)"><rect x="23" y="18.216" width="41.757" height="41.757" rx="20.878" fill="#E3B873"/><rect x="19" y="14.216" width="49.757" height="49.757" rx="24.878" stroke="#fff" stroke-width="8"/></g><path d="M40.573 45.27a4.744 4.744 0 01-2.646-.774c-.792-.516-1.422-1.266-1.89-2.25-.456-.996-.684-2.178-.684-3.546 0-1.368.228-2.544.684-3.528.468-.996 1.098-1.752 1.89-2.268a4.744 4.744 0 012.646-.774c.972 0 1.854.258 2.646.774.792.516 1.416 1.272 1.872 2.268.468.984.702 2.16.702 3.528 0 1.368-.234 2.55-.702 3.546-.456.984-1.08 1.734-1.872 2.25a4.744 4.744 0 01-2.646.774zm0-.36c1.38 0 2.07-2.07 2.07-6.21 0-4.14-.69-6.21-2.07-6.21s-2.07 2.07-2.07 6.21c0 4.14.69 6.21 2.07 6.21zm7.288.09v-.27l1.26-.36v-9.882l-1.89 1.332-.36-.45 3.276-2.97h1.944v11.97l1.26.36V45h-5.49z" fill="#fff"/><defs><filter id="hfilter0_d" x="0" y=".216" width="87.757" height="87.757" filterUnits="userSpaceOnUse" color-interpolation-filters="sRGB"><feFlood flood-opacity="0" result="BackgroundImageFix"/><feColorMatrix in="SourceAlpha" values="0 0 0 0 0 0 0 0 0 0 0 0 0 0 0 0 0 0 127 0"/><feOffset dy="5"/><feGaussianBlur stdDeviation="7.5"/><feColorMatrix values="0 0 0 0 0.890196 0 0 0 0 0.721569 0 0 0 0 0.45098 0 0 0 0.15 0"/><feBlend in2="BackgroundImageFix" result="effect1_dropShadow"/><feBlend in="SourceGraphic" in2="effect1_dropShadow" result="shape"/></filter></defs></svg><svg fill="none" viewBox="0 0 88 88" id="dignity-list2" xmlns="http://www.w3.org/2000/svg"><g filter="url(#ifilter0_d)"><rect x="23" y="18" width="41.757" height="41.757" rx="20.878" fill="#E3B873"/><rect x="19" y="14" width="49.757" height="49.757" rx="24.878" stroke="#fff" stroke-width="8"/></g><path d="M38.47 44.752a4.744 4.744 0 01-2.645-.774c-.792-.516-1.422-1.266-1.89-2.25-.456-.996-.684-2.178-.684-3.546 0-1.368.228-2.544.684-3.528.468-.996 1.098-1.752 1.89-2.268a4.744 4.744 0 012.646-.774c.972 0 1.854.258 2.646.774.792.516 1.416 1.272 1.872 2.268.468.984.702 2.16.702 3.528 0 1.368-.234 2.55-.702 3.546-.456.984-1.08 1.734-1.872 2.25a4.744 4.744 0 01-2.646.774zm0-.36c1.38 0 2.07-2.07 2.07-6.21 0-4.14-.69-6.21-2.07-6.21s-2.07 2.07-2.07 6.21c0 4.14.69 6.21 2.07 6.21zm6.57-.72c0-.708.137-1.35.413-1.926a6.145 6.145 0 011.044-1.53c.408-.432.942-.942 1.602-1.53.612-.54 1.092-.99 1.44-1.35.348-.372.642-.786.882-1.242.24-.468.36-.972.36-1.512 0-.792-.192-1.41-.576-1.854-.384-.444-.882-.666-1.494-.666a4.11 4.11 0 00-1.062.144l-.378.126v2.88l-.234.054a4.026 4.026 0 01-.486.036c-.408 0-.738-.12-.99-.36-.24-.252-.36-.582-.36-.99 0-.384.144-.756.432-1.116.3-.36.738-.654 1.314-.882.588-.228 1.296-.342 2.124-.342 1.62 0 2.82.324 3.6.972.78.648 1.17 1.554 1.17 2.718 0 .732-.192 1.362-.576 1.89a4.826 4.826 0 01-1.386 1.314c-.54.348-1.266.744-2.178 1.188-.768.372-1.392.702-1.872.99a6.964 6.964 0 00-1.314 1.008 3.423 3.423 0 00-.846 1.35h6.66c.084-.648.288-1.188.612-1.62.132-.204.288-.384.468-.54h.54v3.6h-8.91v-.81z" fill="#fff"/><defs><filter id="ifilter0_d" x="0" y="0" width="87.757" height="87.757" filterUnits="userSpaceOnUse" color-interpolation-filters="sRGB"><feFlood flood-opacity="0" result="BackgroundImageFix"/><feColorMatrix in="SourceAlpha" values="0 0 0 0 0 0 0 0 0 0 0 0 0 0 0 0 0 0 127 0"/><feOffset dy="5"/><feGaussianBlur stdDeviation="7.5"/><feColorMatrix values="0 0 0 0 0.890196 0 0 0 0 0.721569 0 0 0 0 0.45098 0 0 0 0.15 0"/><feBlend in2="BackgroundImageFix" result="effect1_dropShadow"/><feBlend in="SourceGraphic" in2="effect1_dropShadow" result="shape"/></filter></defs></svg><svg fill="none" viewBox="0 0 88 88" id="dignity-list3" xmlns="http://www.w3.org/2000/svg"><g filter="url(#jfilter0_d)"><rect x="23" y="18" width="41.757" height="41.757" rx="20.878" fill="#E3B873"/><rect x="19" y="14" width="49.757" height="49.757" rx="24.878" stroke="#fff" stroke-width="8"/></g><path d="M38.236 44.132a4.744 4.744 0 01-2.646-.774c-.792-.516-1.422-1.266-1.89-2.25-.456-.996-.684-2.178-.684-3.546 0-1.368.228-2.544.684-3.528.468-.996 1.098-1.752 1.89-2.268a4.744 4.744 0 012.646-.774c.972 0 1.854.258 2.646.774.792.516 1.416 1.272 1.872 2.268.468.984.702 2.16.702 3.528 0 1.368-.234 2.55-.702 3.546-.456.984-1.08 1.734-1.872 2.25a4.744 4.744 0 01-2.646.774zm0-.36c1.38 0 2.07-2.07 2.07-6.21 0-4.14-.69-6.21-2.07-6.21s-2.07 2.07-2.07 6.21c0 4.14.69 6.21 2.07 6.21zm10.349.36c-.828 0-1.536-.114-2.124-.342-.576-.228-1.014-.522-1.314-.882-.288-.36-.432-.732-.432-1.116 0-.408.12-.732.36-.972.252-.252.582-.378.99-.378.096 0 .192.012.288.036.096.012.162.018.198.018l.234.036v2.88c.012 0 .138.048.378.144.312.084.666.126 1.062.126.84 0 1.482-.252 1.926-.756.456-.516.684-1.284.684-2.304 0-1.044-.222-1.83-.666-2.358-.432-.528-1.02-.792-1.764-.792h-.9v-.45h.9c.54 0 .99-.24 1.35-.72.36-.48.54-1.17.54-2.07 0-.9-.186-1.59-.558-2.07-.372-.48-.846-.72-1.422-.72-.312 0-.612.048-.9.144l-.36.126v2.88l-.234.054a4.026 4.026 0 01-.486.036c-.408 0-.738-.12-.99-.36-.24-.252-.36-.582-.36-.99 0-.372.144-.738.432-1.098.288-.36.708-.654 1.26-.882.564-.24 1.23-.36 1.998-.36 1.008 0 1.86.15 2.556.45.708.288 1.236.678 1.584 1.17.36.492.54 1.032.54 1.62 0 .684-.174 1.23-.522 1.638-.348.396-.804.714-1.368.954-.552.216-1.182.342-1.89.378v.09a7.122 7.122 0 012.16.414c1.44.576 2.16 1.548 2.16 2.916 0 1.056-.438 1.908-1.314 2.556-.864.636-2.196.954-3.996.954z" fill="#fff"/><defs><filter id="jfilter0_d" x="0" y="0" width="87.757" height="87.757" filterUnits="userSpaceOnUse" color-interpolation-filters="sRGB"><feFlood flood-opacity="0" result="BackgroundImageFix"/><feColorMatrix in="SourceAlpha" values="0 0 0 0 0 0 0 0 0 0 0 0 0 0 0 0 0 0 127 0"/><feOffset dy="5"/><feGaussianBlur stdDeviation="7.5"/><feColorMatrix values="0 0 0 0 0.890196 0 0 0 0 0.721569 0 0 0 0 0.45098 0 0 0 0.15 0"/><feBlend in2="BackgroundImageFix" result="effect1_dropShadow"/><feBlend in="SourceGraphic" in2="effect1_dropShadow" result="shape"/></filter></defs></svg><svg fill="none" viewBox="0 0 88 88" id="dignity-list4" xmlns="http://www.w3.org/2000/svg"><g filter="url(#kfilter0_d)"><rect x="23" y="18" width="41.757" height="41.757" rx="20.878" fill="#E3B873"/><rect x="19" y="14" width="49.757" height="49.757" rx="24.878" stroke="#fff" stroke-width="8"/></g><path d="M38.104 45.132a4.744 4.744 0 01-2.646-.774c-.792-.516-1.422-1.266-1.89-2.25-.456-.996-.684-2.178-.684-3.546 0-1.368.228-2.544.684-3.528.468-.996 1.098-1.752 1.89-2.268a4.744 4.744 0 012.646-.774c.972 0 1.854.258 2.646.774.792.516 1.416 1.272 1.872 2.268.468.984.702 2.16.702 3.528 0 1.368-.234 2.55-.702 3.546-.456.984-1.08 1.734-1.872 2.25a4.744 4.744 0 01-2.646.774zm0-.36c1.38 0 2.07-2.07 2.07-6.21 0-4.14-.69-6.21-2.07-6.21s-2.07 2.07-2.07 6.21c0 4.14.69 6.21 2.07 6.21zm10.259.09v-.27l1.26-.36v-2.7h-5.13l-.36-.54 6.75-8.91h1.71v8.64h1.89v.81h-1.89v2.7l1.26.36v.27h-5.49zm-3.24-4.14h4.5v-5.94l-4.5 5.94z" fill="#fff"/><defs><filter id="kfilter0_d" x="0" y="0" width="87.757" height="87.757" filterUnits="userSpaceOnUse" color-interpolation-filters="sRGB"><feFlood flood-opacity="0" result="BackgroundImageFix"/><feColorMatrix in="SourceAlpha" values="0 0 0 0 0 0 0 0 0 0 0 0 0 0 0 0 0 0 127 0"/><feOffset dy="5"/><feGaussianBlur stdDeviation="7.5"/><feColorMatrix values="0 0 0 0 0.890196 0 0 0 0 0.721569 0 0 0 0 0.45098 0 0 0 0.15 0"/><feBlend in2="BackgroundImageFix" result="effect1_dropShadow"/><feBlend in="SourceGraphic" in2="effect1_dropShadow" result="shape"/></filter></defs></svg><svg fill="none" viewBox="0 0 145 145" id="play" xmlns="http://www.w3.org/2000/svg"><g filter="url(#lfilter0_d)"><circle cx="72.5" cy="67.5" r="42.5" fill="#E3B873"/></g><path d="M86 68L65 80.124V55.876L86 68z" fill="#fff"/><defs><filter id="lfilter0_d" x="0" y="0" width="145" height="145" filterUnits="userSpaceOnUse" color-interpolation-filters="sRGB"><feFlood flood-opacity="0" result="BackgroundImageFix"/><feColorMatrix in="SourceAlpha" values="0 0 0 0 0 0 0 0 0 0 0 0 0 0 0 0 0 0 127 0"/><feOffset dy="5"/><feGaussianBlur stdDeviation="15"/><feColorMatrix values="0 0 0 0 0.890196 0 0 0 0 0.721569 0 0 0 0 0.45098 0 0 0 0.2 0"/><feBlend in2="BackgroundImageFix" result="effect1_dropShadow"/><feBlend in="SourceGraphic" in2="effect1_dropShadow" result="shape"/></filter></defs></svg><svg fill="none" viewBox="0 0 28 28" id="repair" xmlns="http://www.w3.org/2000/svg"><path d="M26.406 21.143a3.688 3.688 0 00-1.931-.665c-2.555-1.673-4.229-2.929-5.206-3.906l-3.002-3.001 1.822-2.04c.345.196.716.324 1.087.377.28.047.466.047.653.047.373 0 .466 0 .84.326a.752.752 0 00-.28.606c0 .234.093.514.28.7L22.3 15.22c.233.28.606.42.98.42.373 0 .746-.14.979-.467l3.312-3.312c.28-.233.42-.606.42-.98 0-.372-.14-.699-.42-.979L25.939 8.27a.921.921 0 00-.653-.28c-.233 0-.466.14-.653.28-.373-.327-.373-.42-.373-.793 0-.187 0-.42-.093-.7a3.265 3.265 0 00-.933-1.819l-1.68-1.68c-.979-.979-1.445-1.445-2.705-2.005-2.705-1.26-5.457-1.026-9.468.793-.233.094-.327.28-.28.513a.454.454 0 00.466.374h.607c2.052 0 3.125 0 4.99 1.865.817.817.841 2.07.109 2.991a.427.427 0 00-.248.134l-2.072 2.313-1.567-1.566C9.665 6.968 8.454 5.34 7.522 3.526a3.694 3.694 0 00-1.08-2.44C5.65.295 4.53-.078 3.41.015c-.14.047-.28.14-.326.233a.424.424 0 000 .467L4.39 3.046c-.28.606-.933.98-1.586.933l-1.353-2.24c-.046-.14-.233-.232-.373-.232-.14-.047-.28.046-.373.186a3.674 3.674 0 00.98 5.084c.578.413 1.23.643 1.89.69l.022.01c1.819.933 3.452 2.145 5.177 3.871l1.706 1.667L.565 24.082c-.373.373-.56.886-.56 1.4 0 .512.187.979.56 1.352l.653.653c.373.326.84.513 1.306.513.467 0 .98-.186 1.353-.56l9.904-11.085 2.876 2.876c.979.979 2.237 2.702 3.913 5.217.06.898.428 1.736 1.078 2.386.7.7 1.633 1.073 2.612 1.073h.373c.14 0 .28-.094.373-.233a.424.424 0 000-.467l-1.352-2.285c.326-.607.933-.98 1.632-.933l1.306 2.239c.047.14.233.233.373.233.187-.047.327-.093.42-.233 1.12-1.68.653-3.919-.98-5.085zM15.77 4.072c-1.493-1.446-2.612-1.912-3.872-2.052 2.66-.84 4.618-.793 6.577.093 1.12.466 1.493.84 2.472 1.82l1.68 1.678c.373.373.606.84.652 1.306.047.233.047.42.047.56 0 .513.047.886.606 1.446.187.186.467.28.7.28.28 0 .513-.094.653-.28l1.633 1.632c.093.094.14.187.14.327s-.047.233-.14.326l-3.312 3.312a.451.451 0 01-.653 0l-1.633-1.633c.187-.14.28-.373.234-.652 0-.234-.094-.514-.28-.7-.56-.56-.933-.607-1.446-.607-.14 0-.327 0-.56-.046-.513-.047-.933-.28-1.306-.653l-2.006-2.006c1.027-1.26.933-3.032-.186-4.151zM1.125 2.952l.98 1.68c.093.14.233.233.373.233h.233c1.073.047 2.052-.513 2.519-1.446l.093-.233a.35.35 0 000-.42L4.297.994c.56.093 1.073.373 1.492.793.481.52.79 1.18.807 1.887a.48.48 0 00-.014.118c0 .216-.026.427-.074.63a2.86 2.86 0 01-1.185 1.656 2.822 2.822 0 01-3.125-.047 2.84 2.84 0 01-1.073-3.078zm8.302 7.743C8.028 9.25 6.63 8.13 5.137 7.244c.232-.094.512-.234.745-.373a3.674 3.674 0 001.446-1.82c.887 1.493 2.006 2.892 3.405 4.292l1.602 1.602-1.256 1.402-1.652-1.652zM3.224 26.741c-.373.373-.98.42-1.353.046l-.653-.606a.92.92 0 01-.28-.653c0-.28.094-.513.327-.746l.264-.296.669.669c.093.093.186.14.326.14s.233-.047.327-.14a.45.45 0 000-.653l-.706-.706.617-.69.742.743c.093.093.186.14.326.14s.233-.047.327-.14a.45.45 0 000-.653l-.779-.779L15.376 8.994l1.959 1.96-1.925 2.153a.479.479 0 00-.152.107l-1.866 2.099a.479.479 0 00-.114.178L3.224 26.741zm11.195-11.1l1.276-1.43 3.014 3.014c.84.887 2.286 2.006 4.385 3.405-.28.094-.56.234-.84.42-.578.362-.988.864-1.274 1.42l-.012.023a4.465 4.465 0 00-.157.345l-.006.015c-.015.036-.03.073-.043.11-.265-.39-.52-.756-.765-1.101l.625-.625a.451.451 0 000-.653.451.451 0 00-.653 0l-.52.52a39.845 39.845 0 00-.562-.745l.429-.428a.451.451 0 000-.653.45.45 0 00-.653 0l-.356.356a15.518 15.518 0 00-.95-1.056l-2.938-2.938zm12.5 9.327l-.98-1.679c-.093-.14-.233-.233-.373-.233h-.233c-1.073-.094-2.053.513-2.519 1.446l-.093.233a.35.35 0 000 .42l1.026 1.772a2.756 2.756 0 01-1.493-.793c-.472-.51-.777-1.155-.805-1.847a.484.484 0 00.012-.112 2.804 2.804 0 011.26-2.332c.466-.326.98-.466 1.539-.466.56 0 1.12.186 1.586.513.98.7 1.4 1.959 1.073 3.078z" fill="#E3B873"/></svg><svg fill="none" viewBox="0 0 28 29" id="social-inst" xmlns="http://www.w3.org/2000/svg"><circle cx="14" cy="14.322" r="14" fill="#E3B873"/><path d="M17 8.721h-6a3 3 0 00-3 3v6a3 3 0 003 3h6a3 3 0 003-3v-6a3 3 0 00-3-3z" stroke="#fff" stroke-width="1.5"/><path d="M16.4 14.343a2.4 2.4 0 11-4.747.705 2.4 2.4 0 014.747-.705z" stroke="#fff" stroke-width="1.5" stroke-linecap="round" stroke-linejoin="round"/></svg><svg fill="none" viewBox="0 0 28 29" id="social-mail" xmlns="http://www.w3.org/2000/svg"><circle cx="14" cy="14.322" r="14" fill="#E3B873"/><path d="M8.4 9.122h11.2c.77 0 1.4.63 1.4 1.4v8.4c0 .77-.63 1.4-1.4 1.4H8.4c-.77 0-1.4-.63-1.4-1.4v-8.4c0-.77.63-1.4 1.4-1.4z" stroke="#fff" stroke-width="1.5" stroke-linecap="round" stroke-linejoin="round"/><path d="M21 10.522l-7 4.9-7-4.9" stroke="#fff" stroke-width="1.5" stroke-linecap="round" stroke-linejoin="round"/></svg></svg>